<svg width="48" height="48" viewBox="0 0 48 48" fill="none" xmlns="http://www.w3.org/2000/svg">
<path d="M41.9989 32.9707V38.4009C42.0009 38.905 41.8977 39.404 41.6957 39.8659C41.4938 40.3278 41.1976 40.7424 40.8261 41.0832C40.4546 41.424 40.0161 41.6835 39.5385 41.845C39.061 42.0065 38.555 42.0664 38.0529 42.0211C32.483 41.4159 27.1328 39.5126 22.432 36.4642C18.0586 33.6851 14.3507 29.9772 11.5716 25.6037C8.51255 20.8816 6.60883 15.5053 6.01469 9.91042C5.96946 9.40988 6.02895 8.9054 6.18936 8.42911C6.34978 7.95281 6.60762 7.51514 6.94645 7.14395C7.28529 6.77276 7.6977 6.47619 8.15744 6.27313C8.61717 6.07006 9.11415 5.96494 9.61673 5.96447H15.0469C15.9254 5.95582 16.777 6.26689 17.443 6.8397C18.1091 7.4125 18.5441 8.20796 18.6671 9.07779C18.8963 10.8156 19.3213 12.5219 19.9341 14.1641C20.1777 14.812 20.2304 15.5161 20.086 16.193C19.9416 16.8699 19.6063 17.4912 19.1196 17.9833L16.8208 20.2821C19.3975 24.8137 23.1496 28.5658 27.6812 31.1425L29.98 28.8438C30.4722 28.3571 31.0935 28.0217 31.7704 27.8773C32.4473 27.733 33.1514 27.7857 33.7993 28.0292C35.4415 28.642 37.1478 29.0671 38.8856 29.2963C39.7648 29.4203 40.5678 29.8632 41.1419 30.5407C41.7159 31.2182 42.0209 32.083 41.9989 32.9707Z" stroke="currentColor" stroke-width="3" stroke-linecap="round" stroke-linejoin="round"/>
</svg>
